<svg xmlns="http://www.w3.org/2000/svg" width="32" height="24" viewBox="0 0 32 24">
  <g id="envelope" transform="translate(0 -64)">
    <g id="Group_3" data-name="Group 3" transform="translate(0 64)">
      <g id="Group_2" data-name="Group 2" transform="translate(0 0)">
        <path id="Path_3" data-name="Path 3" d="M7.15,65.845c4.4,3.523,12.116,9.722,14.384,11.655a1.394,1.394,0,0,0,1.938,0c2.27-1.935,9.988-8.134,14.386-11.657a.608.608,0,0,0,.094-.871,2.708,2.708,0,0,0-2.1-.973H9.152a2.708,2.708,0,0,0-2.1.973A.608.608,0,0,0,7.15,65.845Z" transform="translate(-6.504 -64)" fill="#d78004"/>
        <path id="Path_4" data-name="Path 4" d="M31.613,126.474a.658.658,0,0,0-.711.1c-4.87,4.171-11.087,9.518-13.042,11.3a2.68,2.68,0,0,1-3.721,0c-2.085-1.9-9.065-7.892-13.041-11.3a.662.662,0,0,0-.711-.1.674.674,0,0,0-.387.611v16.937a2.683,2.683,0,0,0,2.667,2.694H29.333A2.683,2.683,0,0,0,32,144.023V127.085A.674.674,0,0,0,31.613,126.474Z" transform="translate(0 -122.717)" fill="#d78004"/>
      </g>
    </g>
  </g>
</svg>
