<svg xmlns="http://www.w3.org/2000/svg" width="31.801" height="31.807" viewBox="0 0 31.801 31.807">
  <g id="instagram" transform="translate(-0.449)">
    <path id="Path_5" data-name="Path 5" d="M32.169,9.351a11.622,11.622,0,0,0-.739-3.859A8.148,8.148,0,0,0,26.776.839,11.652,11.652,0,0,0,22.917.1c-1.7-.081-2.243-.1-6.562-.1S11.5.019,9.8.093A11.626,11.626,0,0,0,5.942.833,7.761,7.761,0,0,0,3.121,2.672,7.831,7.831,0,0,0,1.288,5.487,11.654,11.654,0,0,0,.549,9.345c-.081,1.7-.1,2.243-.1,6.562s.019,4.859.093,6.555a11.622,11.622,0,0,0,.74,3.859,8.146,8.146,0,0,0,4.654,4.654,11.654,11.654,0,0,0,3.859.739c1.7.075,2.237.093,6.555.093s4.859-.018,6.555-.093a11.619,11.619,0,0,0,3.858-.739,8.136,8.136,0,0,0,4.654-4.654,11.661,11.661,0,0,0,.739-3.859c.075-1.7.093-2.237.093-6.555S32.244,11.048,32.169,9.351ZM29.3,22.338a8.718,8.718,0,0,1-.547,2.951,5.276,5.276,0,0,1-3.02,3.02,8.749,8.749,0,0,1-2.951.547c-1.678.075-2.181.093-6.425.093s-4.753-.018-6.425-.093a8.714,8.714,0,0,1-2.951-.547,4.894,4.894,0,0,1-1.827-1.187A4.945,4.945,0,0,1,3.972,25.3a8.75,8.75,0,0,1-.547-2.951c-.075-1.678-.093-2.181-.093-6.425s.018-4.753.093-6.425a8.714,8.714,0,0,1,.547-2.951A4.834,4.834,0,0,1,5.165,4.716,4.937,4.937,0,0,1,6.992,3.529a8.755,8.755,0,0,1,2.951-.547c1.678-.075,2.181-.093,6.425-.093s4.753.019,6.425.093a8.718,8.718,0,0,1,2.951.547,4.891,4.891,0,0,1,1.827,1.187,4.944,4.944,0,0,1,1.187,1.827A8.754,8.754,0,0,1,29.3,9.494c.075,1.678.093,2.181.093,6.425S29.379,20.66,29.3,22.338Zm0,0" transform="translate(0 0)" fill="#d78004"/>
    <path id="Path_6" data-name="Path 6" d="M133.12,124.5a8.171,8.171,0,1,0,8.171,8.171A8.173,8.173,0,0,0,133.12,124.5Zm0,13.471a5.3,5.3,0,1,1,5.3-5.3A5.3,5.3,0,0,1,133.12,137.971Zm0,0" transform="translate(-116.764 -116.764)" fill="#d78004"/>
    <path id="Path_7" data-name="Path 7" d="M366.264,90.509a1.908,1.908,0,1,1-1.908-1.908A1.908,1.908,0,0,1,366.264,90.509Zm0,0" transform="translate(-339.507 -83.096)" fill="#d78004"/>
  </g>
</svg>
