<svg xmlns="http://www.w3.org/2000/svg" width="32.254" height="32.322" viewBox="0 0 32.254 32.322">
  <g id="phone-call" transform="translate(-0.539)">
    <g id="Group_1" data-name="Group 1" transform="translate(0.539 0)">
      <path id="Path_2" data-name="Path 2" d="M31.947,23.721,27.437,19.21a3,3,0,0,0-4.994,1.128A3.07,3.07,0,0,1,18.9,22.271c-3.222-.805-7.571-4.994-8.377-8.377a2.92,2.92,0,0,1,1.933-3.544,3,3,0,0,0,1.128-4.994L9.072.846a3.217,3.217,0,0,0-4.35,0L1.662,3.907c-3.061,3.222.322,11.76,7.894,19.331s16.109,11.115,19.331,7.894l3.061-3.061A3.217,3.217,0,0,0,31.947,23.721Z" transform="translate(-0.539 0)" fill="#d78004"/>
    </g>
  </g>
</svg>
