<svg xmlns="http://www.w3.org/2000/svg" width="23.874" height="34.72" viewBox="0 0 23.874 34.72">
  <g id="pin" transform="translate(-79.968 0)">
    <path id="Path_1" data-name="Path 1" d="M102.184,5.945A11.782,11.782,0,0,0,92.172,0c-.178,0-.356,0-.534,0A11.782,11.782,0,0,0,81.626,5.945a12.087,12.087,0,0,0-.158,11.943l8.61,15.759.012.021a2.093,2.093,0,0,0,3.631,0l.012-.021,8.61-15.759a12.088,12.088,0,0,0-.158-11.943ZM91.9,15.732a4.882,4.882,0,1,1,4.882-4.882A4.888,4.888,0,0,1,91.9,15.732Z" transform="translate(0 0)" fill="#d78004"/>
  </g>
</svg>
