<svg xmlns="http://www.w3.org/2000/svg" width="68.136" height="51.37" viewBox="0 0 68.136 51.37">
  <g id="uber-eats" transform="translate(-11.105 -23.3)">
    <path id="Path_8" data-name="Path 8" d="M27.071,65.895c.605,3.43.538,3.5-2.556,3.5-2.354,0-4.709.067-7.063,0-1.278,0-1.883.4-1.883,1.816.067,5.045-.336,4.036,3.969,4.1,2.354.067,4.709,0,7,0,.942,3.094.673,3.5-2.22,3.5-2.287,0-4.574.067-6.861,0-1.278,0-1.883.4-1.883,1.816.067,5.112-.336,4.036,3.969,4.17,2.354.067,4.709,0,7.063.067a3.026,3.026,0,0,1,.538.135v3.43H13.282c-1.076,0-1.682-.336-1.682-1.547,0-6.457,0-12.915.067-19.372a2.107,2.107,0,0,1,1.211-1.48C17.587,65.827,22.3,65.895,27.071,65.895ZM43.282,86.949C38.169,89.5,34,88.832,31.107,85.2a8.576,8.576,0,0,1-.135-10.359c2.758-3.632,7.265-4.439,12.04-2.691,1.48-.2,2.96-.4,4.709-.605v9.081c0,1.682.067,3.363,0,5.045-.067.807-.4,2.22-.74,2.22C45.636,88.092,44.022,88.9,43.282,86.949Zm-4.91-12.242a5.18,5.18,0,1,0,.135,10.359,5.292,5.292,0,0,0,5.112-5.112A5.486,5.486,0,0,0,38.371,74.706Z" transform="translate(-0.162 -13.94)" fill="#fff"/>
    <path id="Path_9" data-name="Path 9" d="M32.357,23.3h3.161v7.2c2.556-.471,4.978-1.211,7.4-1.211a7.255,7.255,0,0,1,6.188,3.9,9.136,9.136,0,0,1-1.682,10.964c-3.161,3.027-7.332,3.161-11.569.4-.538,1.682-.538,1.682-3.565,1.278C32.357,38.435,32.357,30.968,32.357,23.3Zm8.879,8.946A5.617,5.617,0,0,0,41.3,43.479a5.629,5.629,0,0,0,5.516-5.717A5.555,5.555,0,0,0,41.236,32.246ZM26.1,23.367h3.161V45.9c-1.278-.135-3.027,1.143-3.5-1.48a6.249,6.249,0,0,0-.673.336c-6.054,3.969-13.251.673-13.789-6.525-.4-4.843-.067-9.753-.067-14.8h3.5a19.048,19.048,0,0,1,.135,2.018c0,3.969-.135,7.937.067,11.906.2,4.91,4.641,7.4,8.475,4.91,2.085-1.345,2.623-3.43,2.691-5.785V25.318A6.307,6.307,0,0,1,26.1,23.367Z" transform="translate(0)" fill="#fff"/>
    <path id="Path_10" data-name="Path 10" d="M104.14,79.091c-2.354.2-3.9.471-5.381-1.211a3.62,3.62,0,0,0-4.507-.605,2.207,2.207,0,0,0-1.143,1.345c-.067.336.605,1.076,1.009,1.211a34.631,34.631,0,0,0,3.767,1.076,31.413,31.413,0,0,1,4.3,1.211,4.035,4.035,0,0,1,1.076,6.592c-3.027,3.363-10.83,3.161-13.587-.4A12.9,12.9,0,0,1,88.4,85.75c2.085-.2,3.7-.673,5.112,1.076,1.076,1.345,3.969,1.547,5.516.74a2.2,2.2,0,0,0,1.076-1.413,1.811,1.811,0,0,0-1.144-1.278c-1.345-.4-2.758-.605-4.17-.942a15.07,15.07,0,0,1-3.363-1.076c-3.161-1.547-3.632-4.978-1.076-7.4C93.378,72.7,99.835,72.9,102.526,76A21.231,21.231,0,0,1,104.14,79.091Z" transform="translate(-25.303 -16.441)" fill="#fff"/>
    <path id="Path_11" data-name="Path 11" d="M88.2,41.675H75.223c.942,4.978,5.583,5.919,10.09,2.152A23.9,23.9,0,0,0,87.4,45.374c-1.547,3.3-6.256,4.709-10.493,3.161a8.468,8.468,0,0,1-5.179-10.493,8.963,8.963,0,0,1,10.291-6.121C86.187,32.728,88.676,36.5,88.2,41.675ZM84.64,38.917a4.635,4.635,0,0,0-5.112-3.969,4.263,4.263,0,0,0-4.238,3.969Z" transform="translate(-19.727 -2.769)" fill="#fff"/>
    <path id="Path_12" data-name="Path 12" d="M68.5,75.57V72.745c.874-1.009,2.758.538,3.027-1.413a32.659,32.659,0,0,0,0-3.632h3.834c.2,1.547-.135,3.43.673,4.3.74.74,2.691.336,4.17.471V75.57c-.942.067-1.951.135-2.892.135-1.278-.067-1.883.4-1.816,1.816.067,1.682,0,3.363,0,5.045,0,2.287.336,2.556,2.623,2.623.605,0,1.278.067,1.883.067.74,3.363.673,3.5-2.623,3.363a8.714,8.714,0,0,1-4.238-.874c-.874-.538-1.413-2.152-1.547-3.3a41.4,41.4,0,0,1-.067-6.457c.067-1.547-.2-2.556-2.085-2.354C69.24,75.772,68.9,75.637,68.5,75.57Z" transform="translate(-18.789 -14.535)" fill="#fff"/>
    <path id="Path_13" data-name="Path 13" d="M108.374,31.6v3.632c-.336.067-.74.135-1.076.2-2.758.2-3.834,1.278-3.9,4.1-.067,3.027,0,6.054,0,9.215h-3.3V32.407c1.278.067,2.825-1.143,3.5.807A43.812,43.812,0,0,1,108.374,31.6Z" transform="translate(-29.133 -2.717)" fill="#fff"/>
  </g>
</svg>
